<?xml version="1.0"?>
<svg xmlns="http://www.w3.org/2000/svg" xmlns:xlink="http://www.w3.org/1999/xlink" xmlns:svgjs="http://svgjs.com/svgjs" version="1.1" width="512" height="512" x="0" y="0" viewBox="0 0 512 512" style="enable-background:new 0 0 512 512" xml:space="preserve" class=""><g><path xmlns="http://www.w3.org/2000/svg" d="m271 127.85c-4.944-.428-9.945-.66-15-.66a171.575 171.575 0 1 0 0 343.15c5.055 0 10.056-.232 15-.66a171.571 171.571 0 0 1 0-341.83z" fill="#000000" data-original="#d4e1f4" style="" class=""/><g xmlns="http://www.w3.org/2000/svg" fill="#0635c9"><path d="m256 476.341c97.916 0 177.577-79.66 177.577-177.576s-79.661-177.577-177.577-177.577-177.577 79.661-177.577 177.577 79.661 177.576 177.577 177.576zm-130.8-126.073a6 6 0 0 0 -7.781-3.385l-17.58 6.922a164.619 164.619 0 0 1 -9.3-49.04h18.883a6 6 0 0 0 0-12h-18.879a164.568 164.568 0 0 1 11.325-54.5l17.332 7.535a6 6 0 1 0 4.786-11l-17.313-7.53a166.255 166.255 0 0 1 28.145-41.2l13.3 13.3a6 6 0 0 0 8.485-8.485l-13.3-13.3a166.087 166.087 0 0 1 46.5-30.566l6.917 17.566a6 6 0 1 0 11.166-4.4l-6.922-17.58a164.625 164.625 0 0 1 49.041-9.3v18.883a6 6 0 1 0 12 0v-18.88a164.543 164.543 0 0 1 54.5 11.325l-7.538 17.329a6 6 0 1 0 11 4.787l7.53-17.313a166.249 166.249 0 0 1 41.2 28.145l-13.3 13.3a6 6 0 1 0 8.485 8.485l13.3-13.3a166.135 166.135 0 0 1 30.566 46.5l-17.566 6.917a6 6 0 1 0 4.4 11.166l17.58-6.922a164.619 164.619 0 0 1 9.3 49.041h-18.888a6 6 0 1 0 0 12h18.883a164.543 164.543 0 0 1 -11.326 54.5l-17.331-7.541a6 6 0 1 0 -4.786 11l17.313 7.531a166.249 166.249 0 0 1 -28.145 41.2l-13.3-13.3a6 6 0 0 0 -8.485 8.485l13.3 13.3a166.087 166.087 0 0 1 -46.5 30.566l-6.917-17.566a6 6 0 1 0 -11.166 4.4l6.922 17.579a164.625 164.625 0 0 1 -49.041 9.3v-18.884a6 6 0 1 0 -12 0v18.883a164.518 164.518 0 0 1 -54.495-11.321l7.538-17.329a6 6 0 0 0 -11-4.786l-7.53 17.313a166.226 166.226 0 0 1 -41.2-28.146l13.3-13.3a6 6 0 0 0 -8.485-8.485l-13.3 13.3a166.121 166.121 0 0 1 -30.566-46.5l17.566-6.917a6 6 0 0 0 3.377-7.782z" fill="#e3a7b7" data-original="#0635c9" style="" class=""/><path d="m236.376 207.932a6.062 6.062 0 0 0 1.2-.12c1.554-.315 3.133-.592 4.692-.825a6 6 0 0 0 -1.768-11.869c-1.764.263-3.549.577-5.306.932a6 6 0 0 0 1.184 11.882z" fill="#e3a7b7" data-original="#0635c9" style="" class=""/><path d="m162.965 265.924a5.993 5.993 0 0 0 7.849-3.222 93.176 93.176 0 0 1 49.086-49.402 6 6 0 1 0 -4.7-11.042 105.277 105.277 0 0 0 -55.455 55.816 6 6 0 0 0 3.22 7.85z" fill="#e3a7b7" data-original="#0635c9" style="" class=""/><path d="m255.819 433.58c75.424.1 136.628-62.061 134.963-137.833-1.556-70.842-58.447-128.836-129.248-131.686a134.132 134.132 0 0 0 -84.128 25.239 5.994 5.994 0 1 0 7.008 9.727 122.8 122.8 0 1 1 67.525 222.489c-65.159-2.116-117.705-55.584-118.739-120.769a122.118 122.118 0 0 1 18.555-66.853 6.007 6.007 0 0 0 -.822-7.44 6 6 0 0 0 -9.329 1.058 134.011 134.011 0 0 0 -20.411 72.517c.674 73.581 61.038 133.454 134.626 133.551z" fill="#e3a7b7" data-original="#0635c9" style="" class=""/></g><path xmlns="http://www.w3.org/2000/svg" d="m358.314 293-80.106-23.348a36.461 36.461 0 0 0 -44.274-.113l-80.491 23.461a6 6 0 0 0 -.037 11.51l82.363 24.592a36.481 36.481 0 0 0 40.67-.135l81.913-24.457a6 6 0 0 0 -.038-11.51zm-77.752 5.667a24.6 24.6 0 0 1 -18.683 23.845v-47.69a24.6 24.6 0 0 1 18.683 23.849zm-30.683-23.789v47.582a24.564 24.564 0 0 1 0-47.578zm-28 10.674a36.442 36.442 0 0 0 .291 26.967l-45.846-13.689zm67.98 26.885a36.447 36.447 0 0 0 .29-26.8l45.28 13.2z" fill="#ffffff" data-original="#1ae5be" style="" class=""/><path xmlns="http://www.w3.org/2000/svg" d="m194.105 80.381h21.614v19.025h12v-30.872a13.193 13.193 0 0 1 13.181-13.178h30.2a13.193 13.193 0 0 1 13.178 13.178v30.872h12v-19.025h21.622a6 6 0 0 0 6-6v-51.874a17.527 17.527 0 0 0 -17.512-17.507h-100.776a17.527 17.527 0 0 0 -17.507 17.507v51.874a6 6 0 0 0 6 6zm6-57.874a5.513 5.513 0 0 1 5.507-5.507h100.776a5.513 5.513 0 0 1 5.507 5.507v45.874h-15.618a25.2 25.2 0 0 0 -25.177-25.025h-30.2a25.2 25.2 0 0 0 -25.174 25.025h-15.621z" fill="#ffffff" data-original="#1ae5be" style="" class=""/><path xmlns="http://www.w3.org/2000/svg" d="m256 507c114.821 0 208.235-93.414 208.235-208.235s-93.414-208.236-208.235-208.236-208.235 93.414-208.235 208.236 93.414 208.235 208.235 208.235zm0-404.471c108.2 0 196.235 88.031 196.235 196.236s-88.03 196.235-196.235 196.235-196.235-88.031-196.235-196.235 88.03-196.236 196.235-196.236z" fill="#e3a7b7" data-original="#0635c9" style="" class=""/></g></svg>
