<?xml version="1.0"?>
<svg xmlns="http://www.w3.org/2000/svg" xmlns:xlink="http://www.w3.org/1999/xlink" xmlns:svgjs="http://svgjs.com/svgjs" version="1.1" width="512" height="512" x="0" y="0" viewBox="0 0 512 512" style="enable-background:new 0 0 512 512" xml:space="preserve" class=""><g><path xmlns="http://www.w3.org/2000/svg" d="m145.614 291.139a132.353 132.353 0 0 1 -1.574-20.371c0-64.318 46.258-118.025 107.25-129.625l-.366-2.227c-70.419 2.678-126.884 60.79-126.884 131.852a132.353 132.353 0 0 0 1.574 20.371l24.108 5.723a8.819 8.819 0 0 0 7.113-1.365l1.8-1.266z" fill="#000000" data-original="#d4e1f4" style=""/><path xmlns="http://www.w3.org/2000/svg" d="m248.048 292.381a20.9 20.9 0 0 0 -18.891-12.053h-20a20.9 20.9 0 0 1 18.891 12.053l5.968 12.843a8.83 8.83 0 0 0 15.08 1.568 8.871 8.871 0 0 0 1.62-3.725l.642-3.563z" fill="#000000" data-original="#d4e1f4" style=""/><path xmlns="http://www.w3.org/2000/svg" d="m235.87 235.649a8.867 8.867 0 0 0 4.843 6.3l16.281 7.839a20.891 20.891 0 0 1 11.464 22.46l-5.932 32.945a20.909 20.909 0 0 1 -10.505 14.6 20.91 20.91 0 0 0 7.849 2.426 21.45 21.45 0 0 0 2.214.115 20.641 20.641 0 0 0 16.622-8.357 20.929 20.929 0 0 0 3.82-8.786l5.932-32.945a20.891 20.891 0 0 0 -11.464-22.46l-16.281-7.839a8.867 8.867 0 0 1 -4.843-6.3l-3.115-16.313a8.8 8.8 0 0 1 3.836-9.044l23.172-15.174a20.848 20.848 0 0 0 9.143-20.808l-5.362-32.6a131.639 131.639 0 0 0 -20.444-2.708l5.807 35.309a20.848 20.848 0 0 1 -9.143 20.808l-23.172 15.174a8.8 8.8 0 0 0 -3.836 9.044z" fill="#000000" data-original="#d4e1f4" style=""/><path xmlns="http://www.w3.org/2000/svg" d="m149.692 308.99a20.788 20.788 0 0 1 -2.742-.452l-18.638-4.425c14.81 56.671 66.441 98.615 127.688 98.615q5.059 0 10.027-.381a132.258 132.258 0 0 1 -116.335-93.357z" fill="#000000" data-original="#d4e1f4" style=""/><path xmlns="http://www.w3.org/2000/svg" d="m166.95 308.538a20.846 20.846 0 0 0 16.78-3.218l16.224-11.389a8.787 8.787 0 0 1 5.074-1.6h-20a8.787 8.787 0 0 0 -5.074 1.6l-16.224 11.389a20.922 20.922 0 0 1 -2.991 1.743z" fill="#000000" data-original="#d4e1f4" style=""/><path xmlns="http://www.w3.org/2000/svg" d="m355.587 341.3a18.292 18.292 0 0 1 5.339-15.056l5.708-5.653a30.331 30.331 0 0 0 8.267-14.941l6.547-29.2a30.522 30.522 0 0 0 -10.939-30.588 18.386 18.386 0 0 1 -6.491-19.044l3.24-12.657a18.4 18.4 0 0 1 4-7.548c-1.979-3.54-4.1-6.993-6.383-10.324l-10.475 7.455a18.4 18.4 0 0 0 -7.146 10.417l-3.24 12.657a18.386 18.386 0 0 0 6.491 19.044 30.522 30.522 0 0 1 10.939 30.588l-6.547 29.2a30.331 30.331 0 0 1 -8.267 14.941l-5.708 5.653a18.292 18.292 0 0 0 -5.339 15.056l3.483 31.915a133.164 133.164 0 0 0 18.059-17.782z" fill="#000000" data-original="#d4e1f4" style=""/><g xmlns="http://www.w3.org/2000/svg" fill="#1ae5be"><path d="m306.939 480.718a215.864 215.864 0 0 1 -30.4 5.076 6.868 6.868 0 0 0 .637 13.705q.323 0 .652-.03a230.435 230.435 0 0 0 32.333-5.4 6.868 6.868 0 0 0 -3.227-13.352z" fill="#ffffff" data-original="#1ae5be" style="" class=""/><path d="m277.2 55.773a6.867 6.867 0 0 0 .638-13.7 233.117 233.117 0 0 0 -32.758-.769 6.88 6.88 0 0 0 -4.27 11.984 6.71 6.71 0 0 0 4.913 1.735 219.643 219.643 0 0 1 30.826.725q.327.024.651.025z" fill="#ffffff" data-original="#1ae5be" style="" class=""/><path d="m235.464 485.8a216.214 216.214 0 0 1 -30.4-5.075 6.868 6.868 0 0 0 -3.226 13.352 230.181 230.181 0 0 0 32.334 5.4c.219.02.435.03.65.03a6.868 6.868 0 0 0 .638-13.7z" fill="#ffffff" data-original="#1ae5be" style="" class=""/><path d="m438.7 134.744a6.868 6.868 0 0 0 -6.725 10.761 216.87 216.87 0 0 1 16.059 26.295 6.867 6.867 0 1 0 12.2-6.3 230.455 230.455 0 0 0 -17.075-27.965 6.824 6.824 0 0 0 -4.459-2.791z" fill="#ffffff" data-original="#1ae5be" style="" class=""/><path d="m372.761 452.51a215.747 215.747 0 0 1 -27.022 14.781 6.868 6.868 0 1 0 5.712 12.493 229.933 229.933 0 0 0 28.749-15.725 6.868 6.868 0 0 0 -7.435-11.549z" fill="#ffffff" data-original="#1ae5be" style="" class=""/><path d="m210.131 52.529a6.868 6.868 0 0 0 -8.288-5.063 228.585 228.585 0 0 0 -31.235 9.975 6.867 6.867 0 1 0 5.108 12.748 215.013 215.013 0 0 1 29.352-9.372 6.877 6.877 0 0 0 5.063-8.288z" fill="#ffffff" data-original="#1ae5be" style="" class=""/><path d="m435.427 403.15a6.866 6.866 0 0 0 -9.644 1.146 217.941 217.941 0 0 1 -20.746 22.804 6.868 6.868 0 0 0 9.479 9.941 231.616 231.616 0 0 0 22.057-24.249 6.874 6.874 0 0 0 -1.146-9.642z" fill="#ffffff" data-original="#1ae5be" style="" class=""/><path d="m476.612 245.93a7.192 7.192 0 0 0 .976-.069 6.876 6.876 0 0 0 5.83-7.768 229.26 229.26 0 0 0 -6.937-32.043 6.867 6.867 0 0 0 -13.18 3.864 215.578 215.578 0 0 1 6.52 30.115 6.9 6.9 0 0 0 6.791 5.901z" fill="#ffffff" data-original="#1ae5be" style="" class=""/><path d="m468.906 337.18a6.87 6.87 0 0 0 -8.736 4.245 215.218 215.218 0 0 1 -12.149 28.337 6.868 6.868 0 1 0 12.2 6.3 229.119 229.119 0 0 0 12.926-30.151 6.867 6.867 0 0 0 -4.244-8.735z" fill="#ffffff" data-original="#1ae5be" style="" class=""/><path d="m35.838 235.325a6.865 6.865 0 0 0 8.037-5.453 215.287 215.287 0 0 1 7.957-29.772 6.867 6.867 0 0 0 -12.98-4.49 228.989 228.989 0 0 0 -8.467 31.675 6.869 6.869 0 0 0 5.453 8.037z" fill="#ffffff" data-original="#1ae5be" style="" class=""/><path d="m166.263 467.294a216.4 216.4 0 0 1 -27.048-14.8 6.867 6.867 0 0 0 -7.437 11.547 230.147 230.147 0 0 0 28.771 15.741 6.792 6.792 0 0 0 2.853.625 6.869 6.869 0 0 0 2.861-13.115z" fill="#ffffff" data-original="#1ae5be" style="" class=""/><path d="m42.18 301.512a218.689 218.689 0 0 1 -2.17-30.753 6.868 6.868 0 1 0 -13.735.01 232.414 232.414 0 0 0 2.308 32.681 6.9 6.9 0 0 0 6.79 5.9 7.207 7.207 0 0 0 .977-.069 6.878 6.878 0 0 0 5.83-7.769z" fill="#ffffff" data-original="#1ae5be" style="" class=""/><path d="m478.858 263.9a6.876 6.876 0 0 0 -6.868 6.867 218.906 218.906 0 0 1 -2.17 30.751 6.868 6.868 0 0 0 5.83 7.768 7.185 7.185 0 0 0 .976.069 6.9 6.9 0 0 0 6.791-5.9 232.685 232.685 0 0 0 2.308-32.688 6.875 6.875 0 0 0 -6.867-6.867z" fill="#ffffff" data-original="#1ae5be" style="" class=""/><path d="m141.287 79.539a6.872 6.872 0 0 0 -9.492-2.056 231.436 231.436 0 0 0 -26.221 19.655 6.867 6.867 0 1 0 9 10.377 217.73 217.73 0 0 1 24.659-18.484 6.876 6.876 0 0 0 2.054-9.492z" fill="#ffffff" data-original="#1ae5be" style="" class=""/><path d="m51.827 341.419a6.867 6.867 0 0 0 -12.98 4.491 229.176 229.176 0 0 0 12.918 30.135 6.867 6.867 0 1 0 12.2-6.3 215.466 215.466 0 0 1 -12.138-28.326z" fill="#ffffff" data-original="#1ae5be" style="" class=""/><path d="m86.2 404.277a6.867 6.867 0 1 0 -10.791 8.5 231.718 231.718 0 0 0 22.051 24.245 6.868 6.868 0 0 0 9.48-9.939 217.9 217.9 0 0 1 -20.74-22.806z" fill="#ffffff" data-original="#1ae5be" style="" class=""/><path d="m85.071 127.6a6.878 6.878 0 0 0 -9.644 1.146 230.97 230.97 0 0 0 -18.4 27.138 6.87 6.87 0 0 0 5.938 10.308 6.9 6.9 0 0 0 5.95-3.43 216.84 216.84 0 0 1 17.3-25.516 6.879 6.879 0 0 0 -1.144-9.646z" fill="#ffffff" data-original="#1ae5be" style="" class=""/><path d="m337.925 45.33a7.106 7.106 0 1 0 1.282 9.971 7.117 7.117 0 0 0 -1.283-9.971z" fill="#ffffff" data-original="#1ae5be" style="" class=""/><path d="m355.469 58.882a7.11 7.11 0 1 0 2.707 4.723 7.118 7.118 0 0 0 -2.708-4.724z" fill="#ffffff" data-original="#1ae5be" style="" class=""/><path d="m373.013 72.433a7.108 7.108 0 1 0 2.708 4.722 7.082 7.082 0 0 0 -2.709-4.722z" fill="#ffffff" data-original="#1ae5be" style="" class=""/><path d="m390.563 85.989a7.109 7.109 0 1 0 1.281 9.972 7.115 7.115 0 0 0 -1.286-9.976z" fill="#ffffff" data-original="#1ae5be" style="" class=""/><path d="m408.393 163.151a10.214 10.214 0 0 0 10.782-3.624 6 6 0 0 0 .965-1.833l9.969-31.043 27.578-17.566a5.976 5.976 0 0 0 1.526-1.393 10.242 10.242 0 0 0 -8.459-16.492l-32.054-4.286-16.04-12.385 22.03-28.522a9.694 9.694 0 0 0 -1.745-13.6l-6.9-5.33a13.427 13.427 0 0 0 -16.975.492l-26.911 23.4-42.547-32.864a24.474 24.474 0 0 0 -29.921 38.738l42.546 32.863-15.837 31.952a13.425 13.425 0 0 0 3.811 16.545l6.9 5.333a9.622 9.622 0 0 0 5.906 2.023 9.84 9.84 0 0 0 1.255-.081 9.632 9.632 0 0 0 6.437-3.689l22.031-28.523 16.041 12.39 12.3 29.863a10.209 10.209 0 0 0 7.312 7.632zm-9.128-43.551a6 6 0 0 0 -1.88-2.463l-30.831-23.81a6 6 0 1 0 -7.336 9.5l4.024 3.108-20.622 26.7-5.078-3.923a1.394 1.394 0 0 1 -.4-1.717l18.031-36.365a6 6 0 0 0 -1.708-7.413l-46.439-35.871a12.474 12.474 0 0 1 15.251-19.746l46.439 35.87a6 6 0 0 0 7.605-.221l30.621-26.626a1.394 1.394 0 0 1 1.766-.051l5.077 3.921-20.622 26.7-4.024-3.108a6 6 0 1 0 -7.335 9.5l30.831 23.815a6 6 0 0 0 2.873 1.2l30.017 4.01-23.69 15.089a6 6 0 0 0 -2.489 3.225l-8.56 26.657z" fill="#ffffff" data-original="#1ae5be" style="" class=""/></g><path xmlns="http://www.w3.org/2000/svg" d="m256 126.809c-79.38 0-143.96 64.58-143.96 143.959s64.58 143.96 143.96 143.96 143.96-64.58 143.96-143.96-64.58-143.959-143.96-143.959zm-5.076 12.107 6.141 37.341a8.84 8.84 0 0 1 -3.876 8.822l-23.173 15.174a20.765 20.765 0 0 0 -9.048 21.335l3.115 16.312a20.914 20.914 0 0 0 11.424 14.862l16.281 7.839a8.856 8.856 0 0 1 4.86 9.521l-5.932 32.945a8.871 8.871 0 0 1 -1.62 3.725 8.83 8.83 0 0 1 -15.08-1.568l-5.968-12.843a20.9 20.9 0 0 0 -18.891-12.053h-24.129a20.729 20.729 0 0 0 -11.968 3.781l-16.225 11.391a8.819 8.819 0 0 1 -7.113 1.365l-24.108-5.723a132.353 132.353 0 0 1 -1.574-20.371c0-71.065 56.465-129.177 126.884-131.855zm-122.612 165.2 18.638 4.425a20.846 20.846 0 0 0 16.78-3.218l16.224-11.389a8.787 8.787 0 0 1 5.074-1.6h24.129a8.86 8.86 0 0 1 8.009 5.11l5.967 12.843a20.661 20.661 0 0 0 16.737 11.941 21.45 21.45 0 0 0 2.214.115 20.641 20.641 0 0 0 16.622-8.357 20.929 20.929 0 0 0 3.82-8.786l5.932-32.945a20.891 20.891 0 0 0 -11.464-22.46l-16.281-7.839a8.867 8.867 0 0 1 -4.843-6.3l-3.115-16.313a8.8 8.8 0 0 1 3.836-9.044l23.172-15.174a20.848 20.848 0 0 0 9.143-20.808l-5.806-35.317a131.793 131.793 0 0 1 94.544 47.7l-10.2 7.264a30.423 30.423 0 0 0 -11.81 17.217l-3.24 12.657a30.385 30.385 0 0 0 10.727 31.474 18.469 18.469 0 0 1 6.619 18.508l-6.547 29.2a18.352 18.352 0 0 1 -5 9.04l-5.709 5.653a30.226 30.226 0 0 0 -8.823 24.885l4.23 38.767a131.176 131.176 0 0 1 -71.891 21.363c-61.247 0-112.878-41.944-127.688-98.615zm210.758 69.102-3.483-31.918a18.292 18.292 0 0 1 5.339-15.056l5.708-5.653a30.331 30.331 0 0 0 8.267-14.941l6.547-29.2a30.522 30.522 0 0 0 -10.939-30.588 18.386 18.386 0 0 1 -6.491-19.044l3.24-12.657a18.4 18.4 0 0 1 7.146-10.417l10.468-7.455a131.743 131.743 0 0 1 -25.8 176.929z" fill="#e3a7b7" data-original="#0635c9" style="" class=""/></g></svg>
